<?xml version="1.0" encoding="utf-8"?>
<!-- Generator: Adobe Illustrator 24.3.0, SVG Export Plug-In . SVG Version: 6.00 Build 0)  -->
<svg version="1.1" id="Layer_1" xmlns="http://www.w3.org/2000/svg" xmlns:xlink="http://www.w3.org/1999/xlink" x="0px" y="0px"
	 viewBox="0 0 22 22" style="enable-background:new 0 0 22 22;" xml:space="preserve">
<style type="text/css">
	.st0{fill:#F0F8FF;}
</style>
<g>
	<path class="st0" d="M21.7,20.3l-7.4-7.4C15.4,11.5,16,9.8,16,8c0-4.4-3.6-8-8-8S0,3.6,0,8s3.6,8,8,8c1.8,0,3.5-0.6,4.9-1.7
		l7.4,7.4c0.2,0.2,0.5,0.3,0.7,0.3s0.5-0.1,0.7-0.3C22.1,21.3,22.1,20.7,21.7,20.3z M2,8c0-3.3,2.7-6,6-6s6,2.7,6,6s-2.7,6-6,6
		S2,11.3,2,8z"/>
</g>
</svg>
